# xmcd
#
# Track frame offsets:
#	150
#	6227
#	17233
#	31707
#	51888
#	68434
#	82598
#	99604
#	119390
#	128468
#	140820
#	156928
#	175944
#	199371
#
# Disc length: 2894 seconds
#
# Revision: 1
# Processed by: cddbd v1.5.2PL0 Copyright (c) Steve Scherf et al.
# Submitted via: audiograbber 1.83.01
#
DISCID=b10b4c0e
DTITLE=Georgia Fields - Georgia Fields
DYEAR=1900
DGENRE=
TTITLE0=Overture
TTITLE1=Seven Years
TTITLE2=All The King's Men
TTITLE3=This Is Not A Drill
TTITLE4=Sinking Relation Ship
TTITLE5=Two For Tea
TTITLE6=Something Borrowed, Something Blue
TTITLE7=Blue Sky With A Black Cloud Parade
TTITLE8=White Flag
TTITLE9=Chessboard
TTITLE10=One Finger
TTITLE11=Christmas Ribbon
TTITLE12=Satellite
TTITLE13=Cold War
EXTD=
EXTT0=
EXTT1=
EXTT2=
EXTT3=
EXTT4=
EXTT5=
EXTT6=
EXTT7=
EXTT8=
EXTT9=
EXTT10=
EXTT11=
EXTT12=
EXTT13=
PLAYORDER=
